<?xml version="1.0" encoding="UTF-8" standalone="no"?>
<svg
   id="Layer_1"
   data-name="Layer 1"
   viewBox="0 0 309.12 84.6"
   version="1.1"
   sodipodi:docname="apache_tomee-logo-white.svg"
   inkscape:version="1.4.3 (0d15f75, 2025-12-25)"
   xmlns:inkscape="http://www.inkscape.org/namespaces/inkscape"
   xmlns:sodipodi="http://sodipodi.sourceforge.net/DTD/sodipodi-0.dtd"
   xmlns:xlink="http://www.w3.org/1999/xlink"
   xmlns="http://www.w3.org/2000/svg"
   xmlns:svg="http://www.w3.org/2000/svg">
  <sodipodi:namedview
     id="namedview28"
     pagecolor="#ffffff"
     bordercolor="#000000"
     borderopacity="0.25"
     inkscape:showpageshadow="2"
     inkscape:pageopacity="0.0"
     inkscape:pagecheckerboard="0"
     inkscape:deskcolor="#d1d1d1"
     showguides="false"
     inkscape:zoom="1"
     inkscape:cx="154.5"
     inkscape:cy="41.5"
     inkscape:window-width="1209"
     inkscape:window-height="528"
     inkscape:window-x="0"
     inkscape:window-y="34"
     inkscape:window-maximized="0"
     inkscape:current-layer="Layer_1" />
  <defs
     id="defs11">
    <style
       id="style1">.cls-1{fill:url(#linear-gradient);}.cls-2{fill:url(#linear-gradient-2);}.cls-3{fill:url(#linear-gradient-3);}.cls-4{fill:url(#linear-gradient-4);}.cls-5{fill:url(#linear-gradient-5);}.cls-6{fill:url(#linear-gradient-6);}.cls-7{fill:url(#linear-gradient-7);}.cls-8{fill:#fff;}</style>
    <linearGradient
       id="linear-gradient"
       x1="-140.8"
       y1="299.74"
       x2="-140.54"
       y2="299.82"
       gradientTransform="matrix(73.55, 13.53, 12.37, -67.22, 6705.27, 22065.73)"
       gradientUnits="userSpaceOnUse">
      <stop
         offset="0"
         stop-color="#f69a24"
         id="stop1" />
      <stop
         offset="0.31"
         stop-color="#f79b24"
         id="stop2" />
      <stop
         offset="0.84"
         stop-color="#e97927"
         id="stop3" />
    </linearGradient>
    <linearGradient
       id="linear-gradient-2"
       x1="-140.57"
       y1="301.1"
       x2="-140.04"
       y2="301.79"
       gradientTransform="matrix(73.18, 13.46, 22.17, -120.5, 3610.25, 38263.65)"
       gradientUnits="userSpaceOnUse">
      <stop
         offset="0.32"
         stop-color="#9f2065"
         id="stop4" />
      <stop
         offset="0.63"
         stop-color="#c92039"
         id="stop5" />
      <stop
         offset="0.75"
         stop-color="#ce2335"
         id="stop6" />
      <stop
         offset="1"
         stop-color="#e97927"
         id="stop7" />
    </linearGradient>
    <linearGradient
       id="linear-gradient-3"
       x1="-139.85"
       y1="302.64"
       x2="-139.44"
       y2="303.04"
       gradientTransform="matrix(94.54, 17.39, 39.31, -213.67, 1324.66, 67181.12)"
       xlink:href="#linear-gradient-2" />
    <linearGradient
       id="linear-gradient-4"
       x1="-138.47"
       y1="303.49"
       x2="-138.13"
       y2="303.7"
       gradientTransform="matrix(61.33, 11.28, 37.35, -202.99, -2836.49, 63245.35)"
       gradientUnits="userSpaceOnUse">
      <stop
         offset="0"
         stop-color="#282762"
         id="stop8" />
      <stop
         offset="0.1"
         stop-color="#66308d"
         id="stop9" />
      <stop
         offset="0.79"
         stop-color="#9f2065"
         id="stop10" />
      <stop
         offset="0.95"
         stop-color="#cd2032"
         id="stop11" />
    </linearGradient>
    <linearGradient
       id="linear-gradient-5"
       x1="-140.85"
       y1="300.81"
       x2="-140.49"
       y2="301.63"
       gradientTransform="matrix(109.04, 20.06, 18.91, -102.77, 9674.72, 33833.56)"
       xlink:href="#linear-gradient-2" />
    <linearGradient
       id="linear-gradient-6"
       x1="-140.36"
       y1="302.64"
       x2="-140.09"
       y2="303.08"
       gradientTransform="matrix(147.15, 27.07, 35.4, -192.43, 9947.36, 62125.85)"
       xlink:href="#linear-gradient-2" />
    <linearGradient
       id="linear-gradient-7"
       x1="-139.7"
       y1="303.39"
       x2="-139.43"
       y2="304"
       gradientTransform="matrix(87.39, 16.08, 15.27, -82.98, 7588.49, 27506.27)"
       xlink:href="#linear-gradient-4" />
  </defs>
  <path
     class="cls-8"
     d="M96.11,64.39H92.05a1.71,1.71,0,0,1-1.11-.34,2.18,2.18,0,0,1-.65-.85l-2.1-5.76H76.49L74.38,63.2a1.86,1.86,0,0,1-.61.82,1.67,1.67,0,0,1-1.11.37h-4.1L79.67,36.15H85ZM86.84,53.73l-3.44-9.4c-.17-.41-.34-.91-.53-1.48s-.36-1.19-.54-1.85c-.17.66-.35,1.28-.53,1.86s-.36,1.08-.53,1.51l-3.41,9.36Z"
     transform="translate(-6.36 -3.62)"
     id="path18" />
  <path
     class="cls-8"
     d="M103,47.09a10.51,10.51,0,0,1,2.79-2.25,7.51,7.51,0,0,1,3.67-.86,6.55,6.55,0,0,1,3,.69,6.67,6.67,0,0,1,2.34,2,9.24,9.24,0,0,1,1.52,3.2,16.08,16.08,0,0,1,.54,4.37,13.78,13.78,0,0,1-.6,4.15,10.16,10.16,0,0,1-1.73,3.32,8,8,0,0,1-2.72,2.2,7.86,7.86,0,0,1-3.56.79,7.26,7.26,0,0,1-2.87-.51,7.15,7.15,0,0,1-2.13-1.44v8.2H98.44V44.35h3a1.2,1.2,0,0,1,1.23.88Zm.25,12.11a4.72,4.72,0,0,0,1.79,1.4,5.35,5.35,0,0,0,2.1.41,4.69,4.69,0,0,0,2-.41,3.86,3.86,0,0,0,1.49-1.25,6.11,6.11,0,0,0,1-2.12,12.15,12.15,0,0,0,.33-3,13.28,13.28,0,0,0-.28-3,5.68,5.68,0,0,0-.81-2,3.25,3.25,0,0,0-1.28-1.12,4,4,0,0,0-1.71-.35,4.82,4.82,0,0,0-2.56.64,7.76,7.76,0,0,0-2,1.78Z"
     transform="translate(-6.36 -3.62)"
     id="path19" />
  <path
     class="cls-8"
     d="M120.35,47.15A11.86,11.86,0,0,1,128.66,44a8.23,8.23,0,0,1,3.15.58,6.68,6.68,0,0,1,2.34,1.6,6.92,6.92,0,0,1,1.46,2.45,9.47,9.47,0,0,1,.5,3.13V64.39h-2.19a2.19,2.19,0,0,1-1.06-.21,1.4,1.4,0,0,1-.58-.83l-.43-1.44a15.07,15.07,0,0,1-1.49,1.2,8.72,8.72,0,0,1-1.5.87,8.82,8.82,0,0,1-1.67.54,9.91,9.91,0,0,1-2,.18,7.56,7.56,0,0,1-2.34-.34,5.11,5.11,0,0,1-1.86-1,4.63,4.63,0,0,1-1.21-1.69,6,6,0,0,1-.43-2.37,4.64,4.64,0,0,1,.25-1.51,4.59,4.59,0,0,1,.83-1.44A6.93,6.93,0,0,1,122,55,9.43,9.43,0,0,1,124.22,54a19.46,19.46,0,0,1,3.12-.73,31,31,0,0,1,4.06-.34V51.74a4.38,4.38,0,0,0-.86-3,3.12,3.12,0,0,0-2.48-1,5.92,5.92,0,0,0-1.94.27,8.24,8.24,0,0,0-1.36.62l-1.07.61a2,2,0,0,1-1.06.28,1.38,1.38,0,0,1-.86-.27,2.16,2.16,0,0,1-.56-.61Zm11.05,8.69a25.25,25.25,0,0,0-3.52.36,9.2,9.2,0,0,0-2.28.67,3.05,3.05,0,0,0-1.23,1A2,2,0,0,0,124,59a2.11,2.11,0,0,0,.75,1.82,3.27,3.27,0,0,0,2,.54,5.7,5.7,0,0,0,2.57-.54,7.5,7.5,0,0,0,2.12-1.63Z"
     transform="translate(-6.36 -3.62)"
     id="path20" />
  <path
     class="cls-8"
     d="M155.18,48.59a2.15,2.15,0,0,1-.42.43.9.9,0,0,1-.59.16,1.36,1.36,0,0,1-.73-.23c-.23-.15-.51-.32-.84-.5a6,6,0,0,0-1.16-.51,5.3,5.3,0,0,0-1.67-.23,5.15,5.15,0,0,0-2.22.46A4.24,4.24,0,0,0,146,49.49a5.86,5.86,0,0,0-1,2.08,11,11,0,0,0-.31,2.76,10.71,10.71,0,0,0,.34,2.85,6,6,0,0,0,1,2.1,4.15,4.15,0,0,0,1.57,1.29,4.76,4.76,0,0,0,2.07.44,5.09,5.09,0,0,0,1.86-.28,5.57,5.57,0,0,0,1.2-.63c.33-.22.61-.43.85-.62a1.27,1.27,0,0,1,.81-.28,1,1,0,0,1,.88.44l1.39,1.76A8.77,8.77,0,0,1,154.91,63,9.5,9.5,0,0,1,153,64a10.51,10.51,0,0,1-2.07.54,15.22,15.22,0,0,1-2.12.15,9,9,0,0,1-3.5-.69,8.32,8.32,0,0,1-2.87-2,9.63,9.63,0,0,1-1.94-3.25,12.48,12.48,0,0,1-.71-4.39,12.84,12.84,0,0,1,.63-4.09A9.3,9.3,0,0,1,142.26,47a8.5,8.5,0,0,1,3-2.16,10.53,10.53,0,0,1,4.18-.78,9.24,9.24,0,0,1,7,2.79Z"
     transform="translate(-6.36 -3.62)"
     id="path21" />
  <path
     class="cls-8"
     d="M164.67,46.5a10.21,10.21,0,0,1,2.58-1.77,7.43,7.43,0,0,1,3.3-.69,7.23,7.23,0,0,1,2.91.56,5.74,5.74,0,0,1,2.12,1.56,7.09,7.09,0,0,1,1.29,2.4,10.32,10.32,0,0,1,.44,3.08V64.39h-4.83V51.64a4.3,4.3,0,0,0-.84-2.84,3.14,3.14,0,0,0-2.55-1,5,5,0,0,0-2.35.57,8.44,8.44,0,0,0-2.07,1.54V64.39h-4.82v-29h4.82Z"
     transform="translate(-6.36 -3.62)"
     id="path22" />
  <path
     class="cls-8"
     d="M185.78,55a9.39,9.39,0,0,0,.55,2.66,5.36,5.36,0,0,0,1.13,1.86,4.44,4.44,0,0,0,1.67,1.09,6.08,6.08,0,0,0,2.14.36,6.72,6.72,0,0,0,2-.27,8.26,8.26,0,0,0,1.48-.61c.43-.22.8-.42,1.12-.6a1.86,1.86,0,0,1,.92-.27,1,1,0,0,1,.9.44l1.39,1.76A7.85,7.85,0,0,1,197.3,63a9.79,9.79,0,0,1-2.08,1,12.18,12.18,0,0,1-2.2.54,16.53,16.53,0,0,1-2.18.15A10.79,10.79,0,0,1,187,64a8.65,8.65,0,0,1-3.12-2.05,9.68,9.68,0,0,1-2.09-3.36,12.93,12.93,0,0,1-.76-4.64,11.12,11.12,0,0,1,.66-3.85,9.15,9.15,0,0,1,1.91-3.15,8.9,8.9,0,0,1,3-2.12,10,10,0,0,1,4-.78,9.68,9.68,0,0,1,3.5.61,7.51,7.51,0,0,1,2.75,1.76,8.28,8.28,0,0,1,1.81,2.86,10.5,10.5,0,0,1,.65,3.85,3.14,3.14,0,0,1-.23,1.48,1,1,0,0,1-.9.38Zm9.2-2.91a5.66,5.66,0,0,0-.27-1.77,3.93,3.93,0,0,0-.79-1.45,3.6,3.6,0,0,0-1.33-1,4.62,4.62,0,0,0-1.89-.36,4.49,4.49,0,0,0-3.29,1.19,5.82,5.82,0,0,0-1.53,3.38Z"
     transform="translate(-6.36 -3.62)"
     id="path23" />
  <path
     class="cls-8"
     d="M222.79,38.46h-9.71V64.39h-2V38.46h-9.76v-1.7h21.48Z"
     transform="translate(-6.36 -3.62)"
     id="path24" />
  <path
     class="cls-8"
     d="M229.58,44.65a9.27,9.27,0,0,1,3.74.71,7.65,7.65,0,0,1,2.78,2,8.89,8.89,0,0,1,1.73,3.15,14.51,14.51,0,0,1,0,8.26,8.93,8.93,0,0,1-1.73,3.14,7.51,7.51,0,0,1-2.78,2,10.34,10.34,0,0,1-7.48,0,7.63,7.63,0,0,1-2.79-2,9,9,0,0,1-1.74-3.14,14.75,14.75,0,0,1,0-8.26,8.91,8.91,0,0,1,1.74-3.15,7.77,7.77,0,0,1,2.79-2A9.27,9.27,0,0,1,229.58,44.65Zm0,18.53a7.2,7.2,0,0,0,3-.6,5.56,5.56,0,0,0,2.16-1.71,7.36,7.36,0,0,0,1.3-2.68,14.62,14.62,0,0,0,0-7,7.46,7.46,0,0,0-1.3-2.7,5.7,5.7,0,0,0-2.16-1.73,7.05,7.05,0,0,0-3-.61,7,7,0,0,0-3,.61,5.73,5.73,0,0,0-2.17,1.73,7.64,7.64,0,0,0-1.31,2.7,14.3,14.3,0,0,0,0,7,7.54,7.54,0,0,0,1.31,2.68,5.59,5.59,0,0,0,2.17,1.71A7.12,7.12,0,0,0,229.58,63.18Z"
     transform="translate(-6.36 -3.62)"
     id="path25" />
  <path
     class="cls-8"
     d="M243.87,64.39V45h1a.52.52,0,0,1,.57.49l.17,2.81a10.28,10.28,0,0,1,2.6-2.62,5.77,5.77,0,0,1,3.3-1A4.73,4.73,0,0,1,255,45.88a6.33,6.33,0,0,1,1.72,3.41,7.1,7.1,0,0,1,1-2.07,6.09,6.09,0,0,1,1.46-1.45,5.84,5.84,0,0,1,1.78-.85,7.39,7.39,0,0,1,2-.27,6.69,6.69,0,0,1,2.6.48,5,5,0,0,1,1.95,1.41,6.3,6.3,0,0,1,1.23,2.31A10.28,10.28,0,0,1,269.1,52V64.39h-1.85V52A6.66,6.66,0,0,0,266,47.63a4.29,4.29,0,0,0-3.52-1.5,5.15,5.15,0,0,0-1.94.37,4.77,4.77,0,0,0-1.64,1.11,5.26,5.26,0,0,0-1.13,1.82,7.08,7.08,0,0,0-.42,2.54V64.39h-1.88V52a7.17,7.17,0,0,0-1.12-4.34,3.86,3.86,0,0,0-3.29-1.5,5,5,0,0,0-2.93.94,8.78,8.78,0,0,0-2.4,2.6V64.39Z"
     transform="translate(-6.36 -3.62)"
     id="path26" />
  <path
     class="cls-8"
     d="M292.63,62.73l0,1.66H276V36.76H292.6v1.66H278.05V49.59h12.1v1.62h-12.1V62.73Z"
     transform="translate(-6.36 -3.62)"
     id="path27" />
  <path
     class="cls-8"
     d="M315.48,62.73l0,1.66H298.88V36.76h16.56v1.66H300.89V49.59H313v1.62H300.89V62.73Z"
     transform="translate(-6.36 -3.62)"
     id="path28" />
  <g
     id="g28"
     transform="matrix(0.08343596,0,0,0.0779798,7.189997,2.703134)">
    <path
       class="cls-3"
       d="M 276.70929,398.15158 C 302.23724,335.02733 330.72037,272.0269 361.28223,216.18798 315.661,182.30276 271.85458,109.23451 253.85632,76.861096 247.39206,84.205064 243.19551,92.663335 241.29273,99.544641 224.33709,160.7661 284.69512,234.69452 236.07962,207.68409 195.57375,185.17649 104.36388,135.88653 69.572883,184.87673 108.53762,234.94214 210.45066,360.90391 276.70929,398.15158 Z"
       id="path1"
       style="fill:#dd552c" />
    <path
       class="cls-2"
       d="m 361.28223,216.18798 c 29.61372,-54.10557 61.17258,-101.49274 93.89136,-135.632093 0,0 -32.63406,47.237293 -79.24578,141.666263 28.22899,7.77405 108.62492,23.72617 220.60904,-5.20008 2.75317,-20.35067 -10.92799,-42.73447 -79.10569,-50.22831 -44.51018,-4.88729 53.4246,-106.28228 -17.52257,-154.236376 -2.29051,-1.5509 -4.54192,-2.9193413 -6.74771,-4.1444221 C 490.78239,7.5593151 488.27033,6.7773486 485.58883,6.0800952 402.72971,-15.541278 391.24458,124.95855 358.18043,94.755096 304.74931,45.947354 271.02374,57.351032 253.85632,76.861096 271.85458,109.23451 315.661,182.30276 361.28223,216.18798 Z"
       id="path2"
       style="fill:#f79a23" />
    <path
       class="cls-4"
       d="M 210.0662,580.02395 C 228.77149,523.98954 251.27257,461.03472 276.70929,398.15158 210.45066,360.90391 108.53762,234.94214 69.572883,184.87673 62.61664,194.66435 57.862935,208.31618 56.279453,226.98563 47.782084,327.26632 151.23625,401.50752 130.61188,415.06812 103.33103,433.00774 49.03323,371.97525 27.633414,410.75427 58.651418,450.60198 121.83431,522.60155 210.0662,580.02395 Z"
       id="path3"
       style="fill:#d22128" />
    <path
       class="cls-3"
       d="m 496.71556,363.75157 c -52.38198,-18.68248 54.73766,-68.78699 89.52214,-121.94116 4.45069,-6.79659 9.05126,-15.58068 10.29915,-24.78834 -111.98412,28.92625 -192.38005,12.97413 -220.60904,5.20008 -24.13019,48.89246 -51.99426,110.5049 -81.05409,184.79172 30.26536,12.94154 153.84213,60.74576 328.39009,60.99338 29.34655,-76.43722 -76.83473,-86.53111 -126.54825,-104.25568 z"
       id="path4"
       style="fill:#dd552c" />
    <path
       class="cls-4"
       d="m 230.3061,590.11132 c 30.78015,9.59212 132.76813,38.24468 241.08353,33.93083 14.55109,-39.39808 -39.85097,-43.24275 -44.28212,-74.84071 -3.43087,-24.44949 143.16829,20.54617 190.33717,-68.3569 2.38499,-4.49631 4.24542,-8.73848 5.81913,-12.83729 -174.54796,-0.24762 -298.12473,-48.05184 -328.39009,-60.99338 -21.23691,54.28802 -43.08309,115.21624 -64.56762,183.09745 z"
       id="path5"
       style="fill:#d22128" />
    <path
       class="cls-1"
       d="m 230.3061,590.11132 c -13.83104,43.69238 -27.47635,90.36926 -40.72091,139.69832 -4.69831,17.48998 -9.34124,35.30578 -13.919,53.51257 102.80578,33.93735 197.4726,0.0782 200.68192,-41.88734 0.0261,-0.33233 -0.0358,-0.57996 -0.0163,-0.89926 2.44691,-44.44828 -64.17338,-19.80982 -62.59641,-46.53352 1.58348,-26.9192 116.30774,-0.1564 151.78621,-57.87204 2.72059,-4.42463 4.49305,-8.35401 5.86801,-12.0879 C 363.07423,628.356 261.08625,599.70344 230.3061,590.11132 Z"
       id="path6"
       style="fill:#7c297d" />
    <path
       class="cls-1"
       d="m 27.633414,410.75427 c -1.49877,2.71734 -2.85092,5.85824 -4.004321,9.61167 -19.9238542,64.75335 120.960447,151.7406 101.792487,170.70329 -17.2782,17.08597 -39.795576,-21.96023 -67.561903,-5.83217 -3.043153,1.77246 -6.131921,4.00758 -9.302143,7.25926 -31.402472,32.1714 -0.491988,124.85398 88.603316,174.3264 -20.79053,69.81006 -41.489835,147.8047 -61.752542,229.37032 7.350485,-2.57397 16.147608,-5.15446 18.337114,-12.0879 3.287518,-13.51499 23.605618,-95.7518 56.594828,-207.31887 0,0 6.02114,-22.85297 17.04361,-60.50465 10.19163,-34.81706 24.6743,-82.30198 42.68234,-136.25767 C 121.83431,522.60155 58.651418,450.60198 27.633414,410.75427 Z"
       id="path7"
       style="fill:#7c297d" />
  </g>
</svg>
